<svg id="Layer_3" data-name="Layer 3" xmlns="http://www.w3.org/2000/svg" viewBox="0 0 972.9 246.25"><defs><style>.cls-1,.cls-2{stroke:#000;stroke-miterlimit:10;}.cls-2{fill:none;}</style></defs><path class="cls-1" d="M100.64,348.75v29.73a59,59,0,0,0-7.44.46V349.06Q96.88,348.75,100.64,348.75Z" transform="translate(-10.95 -348.25)"/><path class="cls-1" d="M85.77,350v30.37a60.38,60.38,0,0,0-7.43,2.45V351.56C80.78,350.93,83.26,350.41,85.77,350Z" transform="translate(-10.95 -348.25)"/><path class="cls-1" d="M189.82,437.93A89.19,89.19,0,1,1,70.91,353.82v32.61a59.46,59.46,0,1,0,89.18,51.5Z" transform="translate(-10.95 -348.25)"/><polygon class="cls-1" points="268.05 52.52 253.18 71.84 245.18 82.25 205.16 134.27 175.82 134.27 216.02 82.25 89.68 82.25 89.68 52.52 268.05 52.52"/><line class="cls-2" x1="119.41" y1="216.02" x2="119.41" y2="208.59"/><polygon class="cls-1" points="199.45 141.71 193.73 149.14 164.34 149.14 170.08 141.71 199.45 141.71"/><polygon class="cls-1" points="188.01 156.57 182.29 164 152.85 164 158.59 156.57 188.01 156.57"/><polygon class="cls-1" points="268.05 216.02 268.05 245.75 89.68 245.75 112.65 216.02 141.37 178.86 147.11 171.43 176.58 171.43 170.86 178.86 142.27 216.02 268.05 216.02"/><path d="M410.57,470.16a33.69,33.69,0,0,1-7.27,11.7,31.36,31.36,0,0,1-11.09,7.45,37,37,0,0,1-13.88,2.55q-11.4,0-19.7-5a33.59,33.59,0,0,1-12.84-14.24q-4.55-9.21-4.55-21.94t4.55-21.94a33.65,33.65,0,0,1,12.84-14.24,36.86,36.86,0,0,1,19.46-5,41.77,41.77,0,0,1,13.81,2.12,27.94,27.94,0,0,1,10.37,6.31,30.51,30.51,0,0,1,6.84,10.24l-9.57,4.48a22.22,22.22,0,0,0-7.7-10.48q-5-3.57-13-3.58a26.7,26.7,0,0,0-14.3,3.82,25.59,25.59,0,0,0-9.63,11q-3.47,7.15-3.46,17.33a41.38,41.38,0,0,0,3.28,17.27A24.63,24.63,0,0,0,364,479a26.21,26.21,0,0,0,14.3,3.82,24.08,24.08,0,0,0,13.94-4.06q5.94-4.06,8.6-12.18Z" transform="translate(-10.95 -348.25)"/><path d="M436.63,402.17v73.09q0,4.61,1.69,6.36t5.46,1.76a18.38,18.38,0,0,0,4-.37,37.41,37.41,0,0,0,4.24-1.33l-1.58,8.48a19.26,19.26,0,0,1-4.24,1.28,26.25,26.25,0,0,1-4.73.42q-7.38,0-11-4t-3.58-12.24V402.17Z" transform="translate(-10.95 -348.25)"/><path d="M489.83,491.86a30.87,30.87,0,0,1-15.33-3.76A26.06,26.06,0,0,1,464,477.25a39.88,39.88,0,0,1,0-33.81,26.46,26.46,0,0,1,10.3-10.85,29.44,29.44,0,0,1,14.91-3.76,27.48,27.48,0,0,1,14.48,3.64,24,24,0,0,1,9.15,9.88,30.64,30.64,0,0,1,3.15,14q0,2.06-.12,3.75a28.62,28.62,0,0,1-.36,3h-49v-8.61h44.73l-5,1q0-8.73-4.79-13.45T489,437.32a18.74,18.74,0,0,0-10.25,2.73,17.81,17.81,0,0,0-6.66,7.87,29.61,29.61,0,0,0-2.37,12.43,29,29,0,0,0,2.43,12.36,17.84,17.84,0,0,0,6.85,7.94,19.79,19.79,0,0,0,10.6,2.73q6.68,0,10.85-2.55a19.39,19.39,0,0,0,6.73-6.91l7.63,4.49a25.32,25.32,0,0,1-14.24,11.81A33.07,33.07,0,0,1,489.83,491.86Z" transform="translate(-10.95 -348.25)"/><path d="M572.86,430.05H583l-25.21,60.6h-9.7l-25.21-60.6h11l19.15,50.78Z" transform="translate(-10.95 -348.25)"/><path d="M621.1,491.86a30.89,30.89,0,0,1-15.34-3.76,26.06,26.06,0,0,1-10.48-10.85,39.88,39.88,0,0,1,0-33.81,26.46,26.46,0,0,1,10.3-10.85,29.44,29.44,0,0,1,14.91-3.76A27.48,27.48,0,0,1,635,432.47a24,24,0,0,1,9.15,9.88,30.64,30.64,0,0,1,3.16,14c0,1.37,0,2.62-.13,3.75a28.62,28.62,0,0,1-.36,3h-49v-8.61h44.73l-5,1q0-8.73-4.79-13.45t-12.54-4.73A18.74,18.74,0,0,0,610,440.05a17.87,17.87,0,0,0-6.66,7.87A29.61,29.61,0,0,0,601,460.35a29,29,0,0,0,2.42,12.36,17.84,17.84,0,0,0,6.85,7.94,19.79,19.79,0,0,0,10.6,2.73q6.67,0,10.85-2.55a19.39,19.39,0,0,0,6.73-6.91l7.63,4.49a25.32,25.32,0,0,1-14.24,11.81A33,33,0,0,1,621.1,491.86Z" transform="translate(-10.95 -348.25)"/><path d="M665.7,490.65v-60.6h7.88l1.33,9.94a17.81,17.81,0,0,1,7.45-8.37,23.83,23.83,0,0,1,11.94-2.79,27.73,27.73,0,0,1,3.46.25,9,9,0,0,1,3.21,1l-1.7,8.84a15.48,15.48,0,0,0-2.91-.72,31.41,31.41,0,0,0-4.48-.25,15.15,15.15,0,0,0-7.58,2.19,17.3,17.3,0,0,0-6.36,6.6,22.22,22.22,0,0,0-2.55,11.21v32.73Z" transform="translate(-10.95 -348.25)"/><path d="M715.39,485.07l-1.7-3.51h55.88v9.09H706.66V482l52.6-65.81,1.7,3.51H707.88v-9.09H768v8.61Z" transform="translate(-10.95 -348.25)"/><path d="M809.69,428.83a30.31,30.31,0,0,1,15.21,3.76,26.41,26.41,0,0,1,10.36,10.85,39.88,39.88,0,0,1,0,33.81A26.35,26.35,0,0,1,824.9,488.1a32.52,32.52,0,0,1-30.36,0,26.19,26.19,0,0,1-10.43-10.85,39.88,39.88,0,0,1,0-33.81,26.25,26.25,0,0,1,10.43-10.85A30.34,30.34,0,0,1,809.69,428.83Zm0,8.37A19.19,19.19,0,0,0,799.14,440a18.13,18.13,0,0,0-6.73,7.93,33.73,33.73,0,0,0,0,24.79,18.05,18.05,0,0,0,6.73,8,21.32,21.32,0,0,0,21.09,0,18.05,18.05,0,0,0,6.73-8,33.73,33.73,0,0,0,0-24.79,18.13,18.13,0,0,0-6.73-7.93A19.15,19.15,0,0,0,809.69,437.2Z" transform="translate(-10.95 -348.25)"/><path d="M857.32,490.65v-60.6h8.48l.85,13.57-1.58-1.33a20.78,20.78,0,0,1,5.22-7.82,19.85,19.85,0,0,1,7.57-4.3,29.91,29.91,0,0,1,8.91-1.34,27.77,27.77,0,0,1,11.88,2.49,19.89,19.89,0,0,1,8.54,7.57q3.21,5.1,3.21,13v38.79h-9.69V455.26q0-10.06-4.31-14a15.08,15.08,0,0,0-10.6-3.94,20.35,20.35,0,0,0-8.73,2.06,17,17,0,0,0-7.21,6.67q-2.85,4.6-2.85,12.36v32.24Z" transform="translate(-10.95 -348.25)"/><path d="M957.67,491.86a30.82,30.82,0,0,1-15.33-3.76,26,26,0,0,1-10.48-10.85,39.88,39.88,0,0,1,0-33.81,26.4,26.4,0,0,1,10.3-10.85,29.44,29.44,0,0,1,14.91-3.76,27.48,27.48,0,0,1,14.48,3.64,24,24,0,0,1,9.15,9.88,30.64,30.64,0,0,1,3.15,14q0,2.06-.12,3.75a28.62,28.62,0,0,1-.36,3h-49v-8.61h44.72l-5,1q0-8.73-4.79-13.45t-12.55-4.73a18.71,18.71,0,0,0-10.24,2.73,17.75,17.75,0,0,0-6.66,7.87,29.61,29.61,0,0,0-2.37,12.43A29,29,0,0,0,940,472.71a17.83,17.83,0,0,0,6.84,7.94,19.82,19.82,0,0,0,10.61,2.73q6.66,0,10.85-2.55a19.36,19.36,0,0,0,6.72-6.91l7.64,4.49a26,26,0,0,1-5.88,7.15,25.52,25.52,0,0,1-8.36,4.66A33.07,33.07,0,0,1,957.67,491.86Z" transform="translate(-10.95 -348.25)"/></svg>