<svg id="Layer_2" data-name="Layer 2" xmlns="http://www.w3.org/2000/svg" viewBox="0 0 649.52 595"><defs><style>.cls-1,.cls-2{stroke:#000;stroke-miterlimit:10;}.cls-2{fill:none;}</style></defs><path class="cls-1" d="M360,144v72a144.5,144.5,0,0,0-18,1.12V144.75Q350.9,144,360,144Z" transform="translate(-143.5 -143.5)"/><path class="cls-1" d="M324,147v73.55a142.54,142.54,0,0,0-18,5.93V150.81Q314.87,148.53,324,147Z" transform="translate(-143.5 -143.5)"/><path class="cls-1" d="M576,360c0,119.29-96.71,216-216,216S144,479.29,144,360c0-94,60.1-174,144-203.71v79A144,144,0,1,0,504,360Z" transform="translate(-143.5 -143.5)"/><polygon class="cls-1" points="648.5 126.5 612.5 173.3 593.12 198.5 496.19 324.5 425.14 324.5 522.5 198.5 216.5 198.5 216.5 126.5 648.5 126.5"/><line class="cls-2" x1="288.5" y1="522.5" x2="288.5" y2="504.5"/><polygon class="cls-1" points="482.35 342.5 468.5 360.5 397.32 360.5 411.23 342.5 482.35 342.5"/><polygon class="cls-1" points="454.65 378.5 440.81 396.5 369.5 396.5 383.41 378.5 454.65 378.5"/><polygon class="cls-1" points="648.5 522.5 648.5 594.5 216.5 594.5 272.14 522.5 341.68 432.5 355.59 414.5 426.96 414.5 413.12 432.5 343.88 522.5 648.5 522.5"/></svg>